<?xml version="1.0" standalone="no"?>
<!DOCTYPE svg PUBLIC "-//W3C//DTD SVG 20010904//EN"
 "http://www.w3.org/TR/2001/REC-SVG-20010904/DTD/svg10.dtd">
<svg version="1.0" xmlns="http://www.w3.org/2000/svg"
 width="32.000000pt" height="32.000000pt" viewBox="0 0 32.000000 32.000000"
 preserveAspectRatio="xMidYMid meet">

<g transform="translate(0.000000,32.000000) scale(0.100000,-0.100000)"
fill="#000000" stroke="none">
<path d="M56 294 c-13 -12 -16 -40 -16 -139 0 -114 2 -125 20 -135 28 -15 212
-9 218 8 3 9 -22 12 -102 12 -88 0 -106 3 -106 15 0 12 18 15 105 15 l105 0 0
104 c0 134 -2 136 -120 136 -67 0 -92 -4 -104 -16z"/>
</g>
</svg>
